<svg width="659.6px" height="123.3px" xmlns="http://www.w3.org/2000/svg" viewBox="-79.80000000000001 13.359991455078124 659.6 123.28001708984375" style="background: none" preserveAspectRatio="xMidYMid"><defs><linearGradient id="editing-gradient-gradient" x1="0" x2="1" y1="0.5" y2="0.5" gradientUnits="objectBoundingBox"><stop offset="0" stop-color="#ff00ff"></stop><stop offset="1" stop-color="#00ffff"></stop></linearGradient></defs><g><g transform="matrix(1.4,0,0,1.5,-61.3,64.9)"><path d="M 4.5 27.2 L -9.5 27.2 L -1.4 -15.1 L 12.7 -15.1 L 4.5 27.2 Z M 60.2 28.5 L 60.2 28.5 L 60.2 28.5 Q 52.5 28.5 52.5 22.4 L 52.5 22.4 L 52.5 22.4 Q 52.5 19.8 53.6 14.7 L 53.6 14.7 L 53.6 14.7 Q 54.7 9.6 55.1 7.6 L 55.1 7.6 L 55.1 7.6 Q 56 2.9 56 1.5 L 56 1.5 L 56 1.5 Q 56 -1.8 53.5 -1.8 L 53.5 -1.8 L 53.5 -1.8 Q 51.9 -1.8 50.4 0.4 L 50.4 0.4 L 50.4 0.4 Q 48.9 2.6 48.2 7 L 48.2 7 L 44.2 27.2 L 31.7 28.5 L 35.2 11.1 L 35.2 11.1 Q 35.7 8.2 36.3 4.9 L 36.3 4.9 L 36.3 4.9 Q 36.8 1.6 36.8 1.1 L 36.8 1.1 L 36.8 1.1 Q 36.8 -1.8 34.6 -1.8 L 34.6 -1.8 L 34.6 -1.8 Q 33.1 -1.8 31.5 0.4 L 31.5 0.4 L 31.5 0.4 Q 29.9 2.5 29 7 L 29 7 L 25.1 27.2 L 12.5 28.5 L 19.2 -5.5 L 29.7 -6.7 L 28.6 -0.3 L 28.6 -0.3 Q 30.2 -3.7 33.3 -5.2 L 33.3 -5.2 L 33.3 -5.2 Q 36.4 -6.7 41.2 -6.7 L 41.2 -6.7 L 41.2 -6.7 Q 43.9 -6.7 45.7 -5.4 L 45.7 -5.4 L 45.7 -5.4 Q 47.5 -4 48.1 -1.9 L 48.1 -1.9 L 48.1 -1.9 Q 49.2 -4.1 52 -5.4 L 52 -5.4 L 52 -5.4 Q 54.8 -6.7 58.2 -6.7 L 58.2 -6.7 L 58.2 -6.7 Q 61.6 -6.7 63.3 -6 L 63.3 -6 L 63.3 -6 Q 65 -5.3 66 -4 L 66 -4 L 66 -4 Q 67.7 -1.8 67.7 2.3 L 67.7 2.3 L 67.7 2.3 Q 67.7 6.3 66 14.7 L 66 14.7 L 66 14.7 Q 65.1 18.8 65.1 20.3 L 65.1 20.3 L 65.1 20.3 Q 65.1 21.8 66 22.7 L 66 22.7 L 66 22.7 Q 66.9 23.6 68.1 23.7 L 68.1 23.7 L 68.1 23.7 Q 67.5 25.9 65.3 27.2 L 65.3 27.2 L 65.3 27.2 Q 63.1 28.5 60.2 28.5 Z M 75.8 25.3 L 75.8 25.3 L 75.8 25.3 Q 74.3 23.6 73.7 21 L 73.7 21 L 73.7 21 Q 73 18.4 73 14.1 L 73 14.1 L 73 14.1 Q 73 9.8 74.5 5.9 L 74.5 5.9 L 74.5 5.9 Q 75.9 2 78.6 -0.8 L 78.6 -0.8 L 78.6 -0.8 Q 84.1 -6.7 93.2 -6.7 L 93.2 -6.7 L 93.2 -6.7 Q 96.5 -6.7 98.9 -5.6 L 98.9 -5.6 L 109.8 -6.7 L 105.1 18.2 L 105.1 18.2 Q 104.9 19 104.9 20.4 L 104.9 20.4 L 104.9 20.4 Q 104.9 21.8 105.7 22.7 L 105.7 22.7 L 105.7 22.7 Q 106.6 23.6 107.9 23.7 L 107.9 23.7 L 107.9 23.7 Q 107.2 25.9 104.9 27.2 L 104.9 27.2 L 104.9 27.2 Q 102.6 28.5 99.9 28.5 L 99.9 28.5 L 99.9 28.5 Q 97.3 28.5 95.6 27.5 L 95.6 27.5 L 95.6 27.5 Q 93.8 26.5 93.3 24.8 L 93.3 24.8 L 93.3 24.8 Q 92.3 26.4 90.1 27.4 L 90.1 27.4 L 90.1 27.4 Q 87.9 28.5 85 28.5 L 85 28.5 L 85 28.5 Q 82.1 28.5 79.7 27.7 L 79.7 27.7 L 79.7 27.7 Q 77.3 26.9 75.8 25.3 Z M 89.3 -0.7 L 89.3 -0.7 L 89.3 -0.7 Q 88.6 0.4 88 2.4 L 88 2.4 L 88 2.4 Q 87.3 4.3 86.3 9.6 L 86.3 9.6 L 86.3 9.6 Q 85.2 14.8 85.2 18.5 L 85.2 18.5 L 85.2 18.5 Q 85.2 22.2 85.8 23.3 L 85.8 23.3 L 85.8 23.3 Q 86.4 24.4 87.4 24.4 L 87.4 24.4 L 87.4 24.4 Q 89.4 24.4 90.9 22.4 L 90.9 22.4 L 90.9 22.4 Q 92.5 20.5 93 17 L 93 17 L 96.4 -1.7 L 96.4 -1.7 Q 95.1 -2.9 93.5 -2.9 L 93.5 -2.9 L 93.5 -2.9 Q 91.9 -2.9 91 -2.4 L 91 -2.4 L 91 -2.4 Q 90.1 -1.9 89.3 -0.7 Z M 117.5 0.4 L 117.5 0.4 L 117.5 0.4 Q 119.7 -2.6 123 -4.7 L 123 -4.7 L 123 -4.7 Q 126.3 -6.7 130.3 -6.7 L 130.3 -6.7 L 130.3 -6.7 Q 134.4 -6.7 136.3 -5.5 L 136.3 -5.5 L 148.8 -6.7 L 144.5 17.8 L 144.5 17.8 Q 142.2 30.4 137.5 35.3 L 137.5 35.3 L 137.5 35.3 Q 133 40 124.1 40 L 124.1 40 L 124.1 40 Q 117.4 40 113.6 37.9 L 113.6 37.9 L 113.6 37.9 Q 109.7 35.8 109.7 32.2 L 109.7 32.2 L 109.7 32.2 Q 109.7 29.6 111.7 28.1 L 111.7 28.1 L 111.7 28.1 Q 113.7 26.6 116.8 26.6 L 116.8 26.6 L 116.8 26.6 Q 119.5 26.6 121.5 27.8 L 121.5 27.8 L 121.5 27.8 Q 122.7 28.5 123.3 29.4 L 123.3 29.4 L 123.3 29.4 Q 121.8 30.6 121.8 32.8 L 121.8 32.8 L 121.8 32.8 Q 121.8 35.5 124.4 35.5 L 124.4 35.5 L 124.4 35.5 Q 128.7 35.5 131.1 25.4 L 131.1 25.4 L 131.1 25.4 Q 131.8 22.6 132.4 19.9 L 132.4 19.9 L 132.4 19.9 Q 129.5 23.4 123 23.4 L 123 23.4 L 123 23.4 Q 118.4 23.4 115.8 21.2 L 115.8 21.2 L 115.8 21.2 Q 113.2 19.1 113.2 13.9 L 113.2 13.9 L 113.2 13.9 Q 113.2 10.7 114.3 7.1 L 114.3 7.1 L 114.3 7.1 Q 115.4 3.5 117.5 0.4 Z M 125.9 14.1 L 125.9 14.1 L 125.9 14.1 Q 125.9 18.5 128.1 18.5 L 128.1 18.5 L 128.1 18.5 Q 129.6 18.5 131.1 16.8 L 131.1 16.8 L 131.1 16.8 Q 132.3 15.5 132.7 13.5 L 132.7 13.5 L 136 -3 L 136 -3 Q 135.7 -3 135.3 -3.2 L 135.3 -3.2 L 135.3 -3.2 Q 134.7 -3.4 133.9 -3.4 L 133.9 -3.4 L 133.9 -3.4 Q 130 -3.4 127.7 3 L 127.7 3 L 127.7 3 Q 125.9 8 125.9 14.1 Z M 177.3 16.4 L 177.3 16.4 L 177.3 16.4 Q 178.9 17.5 178.9 19.9 L 178.9 19.9 L 178.9 19.9 Q 178.9 22.3 177.6 23.8 L 177.6 23.8 L 177.6 23.8 Q 176.4 25.3 174.4 26.4 L 174.4 26.4 L 174.4 26.4 Q 170.3 28.5 165.9 28.5 L 165.9 28.5 L 165.9 28.5 Q 161.5 28.5 158.9 27.5 L 158.9 27.5 L 158.9 27.5 Q 156.3 26.5 154.6 24.8 L 154.6 24.8 L 154.6 24.8 Q 151.2 21.4 151.2 15.2 L 151.2 15.2 L 151.2 15.2 Q 151.2 5.5 156.5 -0.4 L 156.5 -0.4 L 156.5 -0.4 Q 162.1 -6.7 171.9 -6.7 L 171.9 -6.7 L 171.9 -6.7 Q 178 -6.7 181 -4.2 L 181 -4.2 L 181 -4.2 Q 183.2 -2.3 183.2 0.9 L 183.2 0.9 L 183.2 0.9 Q 183.2 12.1 163.7 12.1 L 163.7 12.1 L 163.7 12.1 Q 163.5 13.8 163.5 15.2 L 163.5 15.2 L 163.5 15.2 Q 163.5 18.2 164.8 19.3 L 164.8 19.3 L 164.8 19.3 Q 166.1 20.4 168.5 20.4 L 168.5 20.4 L 168.5 20.4 Q 171 20.4 173.6 19.3 L 173.6 19.3 L 173.6 19.3 Q 176.2 18.2 177.3 16.4 Z M 164.2 9.4 L 164.2 9.4 L 164.2 9.4 Q 168.7 9.4 171.4 6.6 L 171.4 6.6 L 171.4 6.6 Q 174 3.9 174 -0.4 L 174 -0.4 L 174 -0.4 Q 174 -1.9 173.4 -2.7 L 173.4 -2.7 L 173.4 -2.7 Q 172.9 -3.5 171.8 -3.5 L 171.8 -3.5 L 171.8 -3.5 Q 170.7 -3.5 169.8 -3.1 L 169.8 -3.1 L 169.8 -3.1 Q 168.9 -2.6 167.9 -1.2 L 167.9 -1.2 L 167.9 -1.2 Q 165.5 2 164.2 9.4 Z M 204.5 4.7 L 204.5 4.7 L 204.5 4.7 Q 205.4 2.4 205.4 0.3 L 205.4 0.3 L 205.4 0.3 Q 205.4 -3.5 202.3 -3.5 L 202.3 -3.5 L 202.3 -3.5 Q 200.7 -3.5 199.4 -2 L 199.4 -2 L 199.4 -2 Q 198.1 -0.6 198.1 1.2 L 198.1 1.2 L 198.1 1.2 Q 198.1 2.5 199.1 3.5 L 199.1 3.5 L 199.1 3.5 Q 200.6 4.9 204.4 7.2 L 204.4 7.2 L 204.4 7.2 Q 208.2 9.5 209.6 11.4 L 209.6 11.4 L 209.6 11.4 Q 211 13.3 211 15.9 L 211 15.9 L 211 15.9 Q 211 18.5 209.8 20.8 L 209.8 20.8 L 209.8 20.8 Q 208.5 23.2 206.3 24.9 L 206.3 24.9 L 206.3 24.9 Q 201.5 28.5 193.8 28.5 L 193.8 28.5 L 193.8 28.5 Q 189.7 28.5 186.5 26.3 L 186.5 26.3 L 186.5 26.3 Q 183.3 24.2 183.3 21.7 L 183.3 21.7 L 183.3 21.7 Q 183.3 19.2 185.1 17.7 L 185.1 17.7 L 185.1 17.7 Q 186.9 16.2 189.6 16.2 L 189.6 16.2 L 189.6 16.2 Q 192.3 16.2 194 17.3 L 194 17.3 L 194 17.3 Q 193.1 19.4 193.1 20.8 L 193.1 20.8 L 193.1 20.8 Q 193.1 25 196.7 25 L 196.7 25 L 196.7 25 Q 198.2 25 199.3 24 L 199.3 24 L 199.3 24 Q 200.3 23.1 200.3 21.4 L 200.3 21.4 L 200.3 21.4 Q 200.3 18.2 194.8 14.7 L 194.8 14.7 L 194.8 14.7 Q 190.3 11.8 189.3 10.6 L 189.3 10.6 L 189.3 10.6 Q 187.6 8.6 187.6 6 L 187.6 6 L 187.6 6 Q 187.6 3.4 188.8 1 L 188.8 1 L 188.8 1 Q 190 -1.4 192.2 -3.2 L 192.2 -3.2 L 192.2 -3.2 Q 196.9 -6.7 205 -6.7 L 205 -6.7 L 205 -6.7 Q 209.2 -6.7 211.7 -5.1 L 211.7 -5.1 L 211.7 -5.1 Q 214.1 -3.4 214.1 -0.6 L 214.1 -0.6 L 214.1 -0.6 Q 214.1 2.2 212.4 3.8 L 212.4 3.8 L 212.4 3.8 Q 210.7 5.4 207.7 5.4 L 207.7 5.4 L 207.7 5.4 Q 205.5 5.4 204.5 4.7 Z M 255.6 6.6 L 268.5 5.4 L 268.5 5.4 Q 263.9 15.5 263.9 27.2 L 263.9 27.2 L 263.9 27.2 Q 262.2 28.5 259.7 28.5 L 259.7 28.5 L 259.7 28.5 Q 257.1 28.5 255.5 27.3 L 255.5 27.3 L 255.5 27.3 Q 253.9 26.1 253.6 24.9 L 253.6 24.9 L 253.6 24.9 Q 252 26.5 249.4 27.5 L 249.4 27.5 L 249.4 27.5 Q 246.8 28.5 244.1 28.5 L 244.1 28.5 L 244.1 28.5 Q 241.3 28.5 238.9 27.6 L 238.9 27.6 L 238.9 27.6 Q 236.5 26.7 234.7 24.7 L 234.7 24.7 L 234.7 24.7 Q 230.6 20.3 230.6 12.1 L 230.6 12.1 L 230.6 12.1 Q 230.6 -0.7 237.4 -8.4 L 237.4 -8.4 L 237.4 -8.4 Q 244.5 -16.3 256.9 -16.3 L 256.9 -16.3 L 256.9 -16.3 Q 265.6 -16.3 268.6 -11.9 L 268.6 -11.9 L 268.6 -11.9 Q 269.6 -10.4 269.6 -8.8 L 269.6 -8.8 L 269.6 -8.8 Q 269.6 -7.1 268.9 -5.6 L 268.9 -5.6 L 268.9 -5.6 Q 268.1 -4.2 267 -3 L 267 -3 L 267 -3 Q 264.2 -0.5 260.8 -0.5 L 260.8 -0.5 L 260.8 -0.5 Q 259.5 -0.5 258.2 -0.9 L 258.2 -0.9 L 258.2 -0.9 Q 258.5 -2.8 258.5 -5.1 L 258.5 -5.1 L 258.5 -5.1 Q 258.5 -7.3 258.3 -8.3 L 258.3 -8.3 L 258.3 -8.3 Q 258.1 -9.4 257.8 -10.2 L 257.8 -10.2 L 257.8 -10.2 Q 256.9 -11.9 255.1 -11.9 L 255.1 -11.9 L 255.1 -11.9 Q 253.3 -11.9 251.3 -10 L 251.3 -10 L 251.3 -10 Q 249.3 -8 247.7 -4.8 L 247.7 -4.8 L 247.7 -4.8 Q 244.1 2.4 244.1 11 L 244.1 11 L 244.1 11 Q 244.1 15 245.7 17.8 L 245.7 17.8 L 245.7 17.8 Q 247.3 20.8 250.3 20.8 L 250.3 20.8 L 250.3 20.8 Q 251.3 20.8 252.2 20.3 L 252.2 20.3 L 252.2 20.3 Q 253.2 19.8 253.5 19.4 L 253.5 19.4 L 255.6 6.6 Z M 274.4 25.3 L 274.4 25.3 L 274.4 25.3 Q 272.9 23.6 272.3 21 L 272.3 21 L 272.3 21 Q 271.6 18.4 271.6 14.1 L 271.6 14.1 L 271.6 14.1 Q 271.6 9.8 273.1 5.9 L 273.1 5.9 L 273.1 5.9 Q 274.5 2 277.2 -0.8 L 277.2 -0.8 L 277.2 -0.8 Q 282.7 -6.7 291.8 -6.7 L 291.8 -6.7 L 291.8 -6.7 Q 295.1 -6.7 297.4 -5.6 L 297.4 -5.6 L 308.4 -6.7 L 303.7 18.2 L 303.7 18.2 Q 303.5 19 303.5 20.4 L 303.5 20.4 L 303.5 20.4 Q 303.5 21.8 304.3 22.7 L 304.3 22.7 L 304.3 22.7 Q 305.2 23.6 306.5 23.7 L 306.5 23.7 L 306.5 23.7 Q 305.8 25.9 303.5 27.2 L 303.5 27.2 L 303.5 27.2 Q 301.2 28.5 298.5 28.5 L 298.5 28.5 L 298.5 28.5 Q 295.9 28.5 294.1 27.5 L 294.1 27.5 L 294.1 27.5 Q 292.4 26.5 291.9 24.8 L 291.9 24.8 L 291.9 24.8 Q 290.9 26.4 288.7 27.4 L 288.7 27.4 L 288.7 27.4 Q 286.5 28.5 283.6 28.5 L 283.6 28.5 L 283.6 28.5 Q 280.7 28.5 278.3 27.7 L 278.3 27.7 L 278.3 27.7 Q 275.9 26.9 274.4 25.3 Z M 287.9 -0.7 L 287.9 -0.7 L 287.9 -0.7 Q 287.2 0.4 286.6 2.4 L 286.6 2.4 L 286.6 2.4 Q 285.9 4.3 284.9 9.6 L 284.9 9.6 L 284.9 9.6 Q 283.8 14.8 283.8 18.5 L 283.8 18.5 L 283.8 18.5 Q 283.8 22.2 284.4 23.3 L 284.4 23.3 L 284.4 23.3 Q 285 24.4 286 24.4 L 286 24.4 L 286 24.4 Q 288 24.4 289.5 22.4 L 289.5 22.4 L 289.5 22.4 Q 291 20.5 291.6 17 L 291.6 17 L 295 -1.7 L 295 -1.7 Q 293.7 -2.9 292.1 -2.9 L 292.1 -2.9 L 292.1 -2.9 Q 290.5 -2.9 289.6 -2.4 L 289.6 -2.4 L 289.6 -2.4 Q 288.7 -1.9 287.9 -0.7 Z M 327.1 23.7 L 327.1 23.7 L 327.1 23.7 Q 325.2 28.5 318.8 28.5 L 318.8 28.5 L 318.8 28.5 Q 315.6 28.5 313.6 26.2 L 313.6 26.2 L 313.6 26.2 Q 311.9 24.4 311.9 22.3 L 311.9 22.3 L 311.9 22.3 Q 311.9 17.5 314.1 7 L 314.1 7 L 318.8 -17.6 L 331.8 -18.9 L 325.6 13.5 L 325.6 13.5 Q 324.5 18.2 324.5 19.9 L 324.5 19.9 L 324.5 19.9 Q 324.5 23.5 327.1 23.7 Z M 347.9 23.7 L 347.9 23.7 L 347.9 23.7 Q 345.9 28.5 339.6 28.5 L 339.6 28.5 L 339.6 28.5 Q 336.4 28.5 334.3 26.2 L 334.3 26.2 L 334.3 26.2 Q 332.6 24.4 332.6 22.3 L 332.6 22.3 L 332.6 22.3 Q 332.6 17.5 334.9 7 L 334.9 7 L 339.6 -17.6 L 352.5 -18.9 L 346.3 13.5 L 346.3 13.5 Q 345.3 18.2 345.3 19.9 L 345.3 19.9 L 345.3 19.9 Q 345.3 23.5 347.9 23.7 Z M 379.2 16.4 L 379.2 16.4 L 379.2 16.4 Q 380.8 17.5 380.8 19.9 L 380.8 19.9 L 380.8 19.9 Q 380.8 22.3 379.6 23.8 L 379.6 23.8 L 379.6 23.8 Q 378.4 25.3 376.4 26.4 L 376.4 26.4 L 376.4 26.4 Q 372.3 28.5 367.9 28.5 L 367.9 28.5 L 367.9 28.5 Q 363.5 28.5 360.9 27.5 L 360.9 27.5 L 360.9 27.5 Q 358.3 26.5 356.6 24.8 L 356.6 24.8 L 356.6 24.8 Q 353.2 21.4 353.2 15.2 L 353.2 15.2 L 353.2 15.2 Q 353.2 5.5 358.4 -0.4 L 358.4 -0.4 L 358.4 -0.4 Q 364.1 -6.7 373.9 -6.7 L 373.9 -6.7 L 373.9 -6.7 Q 379.9 -6.7 382.9 -4.2 L 382.9 -4.2 L 382.9 -4.2 Q 385.2 -2.3 385.2 0.9 L 385.2 0.9 L 385.2 0.9 Q 385.2 12.1 365.7 12.1 L 365.7 12.1 L 365.7 12.1 Q 365.5 13.8 365.5 15.2 L 365.5 15.2 L 365.5 15.2 Q 365.5 18.2 366.8 19.3 L 366.8 19.3 L 366.8 19.3 Q 368.1 20.4 370.5 20.4 L 370.5 20.4 L 370.5 20.4 Q 373 20.4 375.6 19.3 L 375.6 19.3 L 375.6 19.3 Q 378.1 18.2 379.2 16.4 Z M 366.2 9.4 L 366.2 9.4 L 366.2 9.4 Q 370.7 9.4 373.3 6.6 L 373.3 6.6 L 373.3 6.6 Q 376 3.9 376 -0.4 L 376 -0.4 L 376 -0.4 Q 376 -1.9 375.4 -2.7 L 375.4 -2.7 L 375.4 -2.7 Q 374.9 -3.5 373.8 -3.5 L 373.8 -3.5 L 373.8 -3.5 Q 372.7 -3.5 371.8 -3.1 L 371.8 -3.1 L 371.8 -3.1 Q 370.9 -2.6 369.9 -1.2 L 369.9 -1.2 L 369.9 -1.2 Q 367.5 2 366.2 9.4 Z M 407.4 9.2 L 407.4 9.2 L 407.4 9.2 Q 409.7 5.1 409.7 0.9 L 409.7 0.9 L 409.7 0.9 Q 409.7 -1.8 407.7 -1.8 L 407.7 -1.8 L 407.7 -1.8 Q 406.2 -1.8 404.6 0.8 L 404.6 0.8 L 404.6 0.8 Q 402.9 3.4 402.4 6.8 L 402.4 6.8 L 399.1 27.2 L 385.8 28.5 L 392.4 -5.5 L 402.9 -6.7 L 401.8 -0.3 L 401.8 -0.3 Q 404.9 -6.7 411.9 -6.7 L 411.9 -6.7 L 411.9 -6.7 Q 415.7 -6.7 417.7 -4.8 L 417.7 -4.8 L 417.7 -4.8 Q 419.7 -2.9 419.7 1 L 419.7 1 L 419.7 1 Q 419.7 5 417.1 7.5 L 417.1 7.5 L 417.1 7.5 Q 414.5 10 410.1 10 L 410.1 10 L 410.1 10 Q 408.2 10 407.4 9.2 Z M 441.1 20 L 441.1 20 L 441.1 20 Q 437.7 23.4 431.7 23.4 L 431.7 23.4 L 431.7 23.4 Q 424 23.4 422.4 17.8 L 422.4 17.8 L 422.4 17.8 Q 421.9 16.2 421.9 14.3 L 421.9 14.3 L 421.9 14.3 Q 421.9 12.5 422.3 10.5 L 422.3 10.5 L 425.3 -5.5 L 438.3 -6.7 L 434.8 11.9 L 434.8 11.9 Q 434.7 12.7 434.5 13.6 L 434.5 13.6 L 434.5 13.6 Q 434.3 14.5 434.3 15.4 L 434.3 15.4 L 434.3 15.4 Q 434.3 16.4 434.6 17 L 434.6 17 L 434.6 17 Q 434.9 17.6 435.4 18 L 435.4 18 L 435.4 18 Q 436.1 18.5 437.5 18.5 L 437.5 18.5 L 437.5 18.5 Q 438.9 18.5 440.1 16.8 L 440.1 16.8 L 440.1 16.8 Q 441.3 15.2 441.8 12.3 L 441.8 12.3 L 445.3 -5.5 L 458 -6.7 L 453.2 18.4 L 453.2 18.4 Q 450.8 30.7 445.9 35.6 L 445.9 35.6 L 445.9 35.6 Q 443.4 38.1 440.2 39.1 L 440.2 39.1 L 440.2 39.1 Q 437 40 432.8 40 L 432.8 40 L 432.8 40 Q 426.1 40 422.2 37.9 L 422.2 37.9 L 422.2 37.9 Q 418.4 35.8 418.4 32.3 L 418.4 32.3 L 418.4 32.3 Q 418.4 29.7 420.4 28.2 L 420.4 28.2 L 420.4 28.2 Q 422.4 26.7 425.4 26.7 L 425.4 26.7 L 425.4 26.7 Q 428.1 26.7 430.2 27.8 L 430.2 27.8 L 430.2 27.8 Q 431.4 28.5 432 29.4 L 432 29.4 L 432 29.4 Q 430.5 30.7 430.5 32.8 L 430.5 32.8 L 430.5 32.8 Q 430.5 35.6 433.1 35.6 L 433.1 35.6 L 433.1 35.6 Q 437.3 35.6 439.7 25.9 L 439.7 25.9 L 439.7 25.9 Q 440.4 23 441.1 20 Z" fill="url(#editing-gradient-gradient)"></path></g></g><style>text {
  font-size: 64px;
  font-family: Arial Black;
  dominant-baseline: central;
  text-anchor: middle;
}</style></svg>